/* XPM */
static char *_ade2dc0e8384c42dc4f52f43839edc1XaqGd3XvtTdN0AkP[] = {
/* columns rows colors chars-per-pixel */
"64 64 229 2 ",
"   c #060312",
".  c #070312",
"X  c #040510",
"o  c #040711",
"O  c #040412",
"+  c #050513",
"@  c #070513",
"#  c #070214",
"$  c #060314",
"%  c #060316",
"&  c #040414",
"*  c #050515",
"=  c #070415",
"-  c #050714",
";  c #070714",
":  c #050517",
">  c #070417",
",  c #070616",
"<  c #080516",
"1  c #080717",
"2  c #090717",
"3  c #0B0617",
"4  c #050812",
"5  c #060817",
"6  c #080815",
"7  c #090917",
"8  c #070118",
"9  c #060218",
"0  c #070319",
"q  c #070618",
"w  c #090319",
"e  c #080518",
"r  c #0A0418",
"t  c #0B0519",
"y  c #090619",
"u  c #080719",
"i  c #08051A",
"p  c #0B051B",
"a  c #09061B",
"s  c #0A071B",
"d  c #0A031C",
"f  c #08041C",
"g  c #09051D",
"h  c #0B051D",
"j  c #090919",
"k  c #0A0A18",
"l  c #0B0B19",
"z  c #09081B",
"x  c #080B1A",
"c  c #0C0918",
"v  c #0B0D1A",
"b  c #0F0D19",
"n  c #0C0C1A",
"m  c #0E0C1A",
"M  c #0F0D1B",
"N  c #110C1B",
"B  c #100E1A",
"V  c #100E1C",
"C  c #0D101C",
"Z  c #0E111E",
"A  c #11101C",
"S  c #11111F",
"D  c #121220",
"F  c #171D24",
"G  c #191C24",
"H  c #1D2129",
"J  c #202329",
"K  c #21252A",
"L  c #20222F",
"P  c #23272C",
"I  c #23262E",
"U  c #24282E",
"Y  c #212330",
"T  c #222531",
"R  c #232631",
"E  c #242830",
"W  c #262931",
"Q  c #242933",
"!  c #272A32",
"~  c #272E32",
"^  c #252A34",
"/  c #252A36",
"(  c #272D34",
")  c #262C35",
"_  c #272D36",
"`  c #282B33",
"'  c #292D32",
"]  c #292F33",
"[  c #2A2E33",
"{  c #282B35",
"}  c #292C34",
"|  c #2A2D35",
" . c #292E35",
".. c #2B2F35",
"X. c #292C36",
"o. c #2A2D37",
"O. c #292E37",
"+. c #2A2F37",
"@. c #2B2F37",
"#. c #2B2E39",
"$. c #2A2F39",
"%. c #292E3A",
"&. c #2D2F3A",
"*. c #2A3035",
"=. c #2D3036",
"-. c #2B3138",
";. c #2D3038",
":. c #2E3139",
">. c #2E313B",
",. c #2E3539",
"<. c #2F323C",
"1. c #303439",
"2. c #30363A",
"3. c #30333D",
"4. c #30333F",
"5. c #31373C",
"6. c #31343E",
"7. c #34373F",
"8. c #32383D",
"9. c #313440",
"0. c #353840",
"q. c #363941",
"w. c #373A42",
"e. c #383B43",
"r. c #393D45",
"t. c #3B4148",
"y. c #3B414A",
"u. c #3E4149",
"i. c #3C4249",
"p. c #3C424B",
"a. c #484E53",
"s. c #4E4A57",
"d. c #494F54",
"f. c #4E4C58",
"g. c #4F4D59",
"h. c #4F4F5A",
"j. c #504B58",
"k. c #514C59",
"l. c #504E5A",
"z. c #4A5055",
"x. c #4A5057",
"c. c #4D5156",
"v. c #4C5256",
"b. c #4E5258",
"n. c #4F5359",
"m. c #525659",
"M. c #51545A",
"N. c #52555B",
"B. c #50565B",
"V. c #53575A",
"C. c #50505C",
"Z. c #52505C",
"A. c #54505D",
"S. c #51575C",
"D. c #53575C",
"F. c #58545E",
"G. c #54585B",
"H. c #53585F",
"J. c #54585D",
"K. c #55595D",
"L. c #55595F",
"P. c #545A5F",
"I. c #565B5E",
"U. c #585C5F",
"Y. c #585360",
"T. c #5B5762",
"R. c #5A5663",
"E. c #5B5764",
"W. c #545961",
"Q. c #555961",
"!. c #555B60",
"~. c #565A60",
"^. c #555B62",
"/. c #565A62",
"(. c #565C61",
"). c #575E60",
"_. c #575D62",
"`. c #585B61",
"'. c #585B63",
"]. c #5C5863",
"[. c #595D60",
"{. c #5A5E61",
"}. c #595C62",
"|. c #585E63",
" X c #5B5F62",
".X c #5A5E63",
"XX c #5E5A64",
"oX c #5E5966",
"OX c #5F5A67",
"+X c #595C64",
"@X c #5A5D65",
"#X c #585E65",
"$X c #5A5F66",
"%X c #5A6064",
"&X c #5B6166",
"*X c #5A6367",
"=X c #5C6066",
"-X c #5C6267",
";X c #5D6368",
":X c #5F656A",
">X c #61676B",
",X c #68626B",
"<X c #6A646D",
"1X c #6B656E",
"2X c #6C666F",
"3X c #6D6A6F",
"4X c #6D6770",
"5X c #6D6971",
"6X c #6E6871",
"7X c #6F6A70",
"8X c #6E6B70",
"9X c #6D6973",
"0X c #6F6972",
"qX c #6E6A72",
"wX c #6F6C71",
"eX c #6E6A74",
"rX c #6F6B74",
"tX c #6F6B76",
"yX c #706D73",
"uX c #716B74",
"iX c #716A76",
"pX c #706D75",
"aX c #736F79",
"sX c #716D7A",
"dX c #72717A",
"fX c #73727B",
"gX c #74707A",
"hX c #75717B",
"jX c #75707D",
/* pixels */
",X,X,X,X,X,X,X,X,X,X,X,X,X,X,X,X1X1X1X1X1X1X1X1X,X,X,X,X,X,X,X,X,X,X,X,X,X,X,X,X1X1X1X1X1X1X1X1X1X1X1X1X1X1X1X<X1X1X1X1X1X1X1X1X",
",X,X,X,X,X,X,X,X,X,X,X,X,X,X,X,X1X1X1X1X1X1X1X1X,X,X,X,X,X,X,X,X,X,X,X,X,X,X,X,X1X1X1X1X1X1X1X1X1X1X1X1X1X1X1X<X1X1X1X1X1X1X1X1X",
",X,X,X,X,X,X,X,X,X,X,X,X,X,X,X,X1X1X1X1X1X1X1X1X,X,X,X,X,X,X,X,X,X,X,X,X,X,X,X,X1X1X1X1X1X1X1X1X1X1X1X1X1X1X1X<X1X1X1X1X1X1X1X1X",
",X,X,X,X,X,X,X,X,X,X,X,X,X,X,X,X1X1X1X1X1X1X1X1X,X,X,X,X,X,X,X,X,X,X,X,X,X,X,X,X1X1X1X1X1X1X1X1X1X1X1X1X1X1X1X1X1X1X1X1X1X1X1X1X",
"1X1X1X1X1X1X1X1X1X1X1X1X1X1X1X1X1X1X1X1X1X1X1X1X1X1X1X1X1X1X1X1X1X1X1X1X1X1X1X1X1X1X1X1X1X1X1X1X2X2X2X2X2X2X2X2X4X4X4X4X4X4X4X4X",
"1X1X1X1X1X1X1X1X1X1X1X1X1X1X1X1X1X1X1X1X1X1X1X1X1X1X1X1X1X1X1X1X1X1X1X1X1X1X1X1X1X1X1X1X1X1X1X1X2X2X2X2X2X2X2X2X4X4X4X4X4X4X4X4X",
"1X1X1X1X1X1X1X1X1X1X1X1X1X1X1X1X1X1X1X1X1X1X1X1X1X1X1X1X1X1X1X1X1X1X1X1X1X1X1X1X1X1X1X1X1X1X1X1X2X2X2X2X2X2X2X2X4X4X4X4X4X4X4X4X",
"1X1X1X1X1X1X1X1X1X1X1X1X1X1X1X1X1X1X1X1X1X1X1X1X1X1X1X1X1X1X1X1X1X1X1X1X1X1X1X1X1X1X1X1X1X1X1X1X2X2X2X2X2X2X2X2X4X4X4X4X4X4X4X4X",
"2X2X2X2X2X2X2X2X2X2X2X2X2X2X2X2X2X2X2X2X2X2X2X2X2X2X2X2X2X2X2X2X1X1X1X1X1X1X1X1X2X2X2X2X2X2X2X2X4X4X4X4X6X6X6X6X6X4X4X4X4X4X4X4X",
"4X4X4X4X4X4X4X4X4X4X4X4X4X4X4X4X4X4X4X4X4X4X4X4X4X4X4X4X4X4X4X4X2X2X2X2X2X2X2X2X4X4X4X4X4X4X4X4X6X6X6X6X6X6X6X6X6X6X6X6X6X6X6X6X",
"6X6X6X6X6X6X6X6X6X6X6X6X6X6X6X6X6X6X6X6X6X6X6X6X6X6X6X6X6X6X6X6X4X4X4X4X4X4X4X4X6X6X6X6X6X6X6X6X6X6X6X6X6X6X6X6X6X6X6X6X6X6X6X6X",
"6X6X6X6X6X6X6X6X6X6X6X6X6X6X6X6X6X6X6X6X6X6X6X6X6X6X6X6X6X6X6X6X4X4X4X4X4X4X4X4X6X6X6X6X6X6X6X6X6X6X6X6X6X6X6X6X6X6X6X6X6X6X6X6X",
"6X6X6X6X6X6X6X6X6X6X6X6X6X6X6X6X6X6X6X6X6X6X6X6X6X6X6X6X6X6X6X6X6X6X6X6X6X6X6X6X6X6X6X6X6X6X6X6X6X6X6X6X6X6X6X6X6X6X6X6X6X6X6X6X",
"6X6X6X6X6X6X6X6X6X6X6X6X6X6X6X6X6X6X6X6X6X6X6X6X6X6X6X6X6X6X6X6X6X6X6X6X6X6X6X6X6X6X6X6X6X6X6X6X6X6X6X6X6X6X6X6X6X6X6X6X6X6XuX6X",
"6X6X6X6X6X6X6X6X6X6X6X6X6X6X6X6X6X6X6X6X6X6X6X6X6X6X6X6X6X6X6X6X6X6X6X6X6X6X6X6X6X6X6X6X6X6X4X4X6X6X6X6X6X6X6X6X6X6X6X6X6X6X6X6X",
"6X6X6X6X6X6X6X6X6X6X6X6X6X6X6X6X6X6X6X6X6X6X6X6X6X6X6X6X6X6X6X6X6X6X6X6X6X6X6X6X6X6X6X6X6X6X6X4X6X6X6X6X6X6X6X6X6X6X6X6X6X6X6X6X",
"3X3X6X6X6X6XwXwXwXwXwX6X6X3X3X3X6X6X6X6X6X6XwXwXwXwXyXyX3X3X3X3X6X6X6X6X6X6X6X6XrXrXrXrXrXrXrXrXpXpXpXrXrX6X6X6XuXuXuXuXuXuXuXuX",
"6X6X6X6XrXrXrXrXrXrXrXrX6X6X6X6XrXuXuXrXrXrXrXrX6X6X6X6XrXrXrXrXuXuXrX6X6X6X6X6XrXrXrXrXrXrXrXrXrXrXrXrX6X6X6XrXuXuXuXuXuXuXuXuX",
"hXhXhXhXaXaXaXaXaXaXaXaXfXfXfXfXfXhXhXfXfXfXfXfXfXfXhXhXaXaXaXaXaXaXaXaXaXaXaXaXaXaXaXaXaXaXaXaXaXaXaXaXhXhXhXhXjXjXjXjXjXjXjXjX",
"l.l.l.j.j.s.s.s.s.s.j.j.h.h.l.h.l.l.l.l.h.h.C.C.C.C.A.A.Y.Y.Y.Y.Y.Y.Y.F.].].].E.E.T.T.T.T.T.T.T.E.T.].].].].OXOXOXOXOXOXOXOXOXOX",
"m m m m m m m m m m m m m m m m k 7 7 7 n k k k m n n n n n n n n n n n n n n n B B N N N N B B n n B B B B S S V V V V V V V V ",
"u u u u u u u u u u u u u u u u u u u q > > > > u u u > > $ $ $ $ $ $             $ $ $ # # $           + + + + + > > > > > > + ",
"u u u u u u u u u u u u p p u u u u u 0 w 0 0 0 w w u u u u u u u u u 1 1 1 1 1 1 u u u p p p 1 1 1 1 1 1 1 1 1 1 u k k k k k k ",
"f f f f f f d f f f f f d d d d f f f f d d f f f f f f u u u u u u u u u u u u u u u u w w w w u u u > > $ $ $ u u u u u u u u ",
"u u u u u u u u u u u u u u f f u u f f u u u u u u u u u u u u u u u u u u u u u u u u u u u u u u u u u u u u u u u u u u u u ",
"u u u u u u u u u u u u u u f f u u u f u u u u u u u u u u u u u u u u u u u u u u u u u u u u u u u u u u u u u u u u u u u u ",
"u u u u u u u u u u u u u u u u u u u u u u u u u u u u u u u u u u u u u u u u u u u u u u u u u u u u u u u u q > 5 5 1 1 1 u ",
"u u u u u u u u u u u u u u u u u u u u u u u u u u u u u u u u u u u u u u u u u u u u u u u u u u u u u u u u k k k k k k k k ",
"u u u u u u u u u u u u u u u u u u u u u k u u q q q q q q u u u u q u u u u u u q u u u u q u u u u u u u u u k k k k k k k k ",
"u u u u u u u u u u u u u u u u u u u u u u u u > q q q q q q q u u u u u u u u q q q q u u q q q u u u u u u 1 k k k k k k k k ",
"> > > > > > > > > > > > > > > > > > > > > > > > > > > > > > > > > > > > > > > > > > > > > > > > > > > > > > > + > > > > > > > > ",
"+ + + + + + + + + + + + + + + + + + + + + + + + 4 4 > > > > + + + + + + + + + + + + > + + + + + + + + + +     + + + + + + + 4 4 ",
"| | | | [ [ | | | | =.=.1.1.1.1.1.1.1.1.=.[ U K K K K K J J K K K K P P P P U E { { | | { { { { { { { { T T T P H H H H F F F G ",
".X.X.X.X.X.X.X.X.X.X.X.X.X.X.X.X.X.X.X.XU.I.G.M.M.M.M.M.M.M.G.G.G.G.G.G.I.I.I.I.I.!.!.!.+X+X+X+X#X#X#X+X#X#X#X#X#X`.`.`.H.H.H.H.",
".X.X.X.X.X.X.X.XU.U.U.U.U.U.U.U.U.U.U.U..X.X.X.X.X.X.XU..XU.U.U.I.I.I.I.I.I.I.I.I.I.I.I..X.X.X.X.X.X.X.X$X=X=X=X=X=X=X=X:X:X>X>X",
".X.X.X.X.X.X.XU.U.I.I.I..X.X.X.X.X.X.X.X.X.X.X.X.X.X.XU..X.X.X.X.X.XU.I.I.I.I.I..X.X.X.X.X`.`..X.X.X.X.X.X.X.X.X;X;X;X=X=X&X=X=X",
"_._._._._._._._._._._._._._._._._._._._._._._._._._.U.U._._._._._._._._._._._._..X.X_._..X.X.X.X_._.%X%X&X&X&X&X=X=X=X=X=X=X=X=X",
"_._._._._._._._._._._._._._._._._._._._.U._._._._._.U.U._._._._._._._._._._._._..X.X_._..X.X.X.X.X.X%X%X&X&X&X&X=X=X=X=X=X=X=X=X",
"_._._._._._._._._._._._._._._._._._.U.U.U.U._._._.U.U.U._._._._._._._._._._._._..X.X_._._._..X.X.X.X&X&X&X&X&X&X&X&X&X&X*X*X*X*X",
"_._._._._._._._._._._._._._._._._.U.U.U.U.U._._._.U.U.U._._._._._._._._._._._._..X.X_._._..X.X.X.X.X&X&X&X&X&X&X&X&X&X&X*X*X*X*X",
"`.`.`..X.X.X.X`._._._._._._._._._._._._._._._._.`.`.`.`.!.!.!.!.`.`.`.`.`.`.`.`.!.!._._._._._._._._._._..X.X.X.X#X#X#X#X#X#X&X&X",
"`.`.`.`..X`.!.!._._._._._._._._._._._._._._._._.`.`.`.!.!.I.I.I.I.I.I.I.I.I.I.I.!.!.!.!._._._._._._._._._._._._.#X#X#X#X#X#X#X#X",
"I.I.I.I.!.!.!.!.!.!._._._._._._._._._._.!.!.I.!.!.!.!.!.D.D.M.M.M.M.M.M.M.M.M.M.M.n.D.D.M.M.M.M.M.M.M.M.D.D.D.D.H.H.H.H.H.H.W.W.",
"D.D.I.I.I.I.!.!.I.I.!.!.!.!.!.!.!.!.!.!.!.!.!.!.!.!.!.!.M.M.M.M.b.b.b.b.b.b.b.v.v.z.z.d.d.a.a.a.a.a.a.a.d.d.d.d.z.z.z.z.z.z.x.x.",
"r.r.r.r.i.i.i.i.t.t.i.i.i.i.i.i.i.i.p.i.t.t.t.t.e.e.e.e.w.w.w.w.w.w.w.w.w.w.w.7.8.6.6.6.6.6.1.1.1.1.,.,.,.,.,.,.-.| | | | | | $.",
"| | ;.| | | | | ( ( | | | | ( ( ( ( ^ ^ ^ W W W W W W W W W W W ` ` | | | | | | [ [ [ [ [ [ [ [ ~ ~ ~ ~ ~ ~ ~ ~ | | | | | | | | ",
"| | | | | | | | | | | | $.$.| | ( ( ( ( ^ ^ ^ ^ | | | | | | | | | | | | | | | | [ [ *.*.*.*.[ [ *.*.*.*.*.*.*.*.$.$.| | | | | | ",
";.;.;.;.| | | | | | | | $.$.$.$.$.$.$.$.$.$.| | $.$.| | | | | | | | | | *.*.*.| | ( ( ( ( ( | | | | | | | | -.*.$.| | | | | | | ",
"&.&.&.&.&.&.&.&.$.$.&.&.&.&.&.&.&.&.&.&.$.$.$.$.$.$.$.$.$.$.$.$.$.$.$.$.$.$.$.$.| | | $.$.$.| | $.$.$.$.$.$.$.$.$.$.$.$.$.$.$.$.",
"&.&.&.&.&.&.&.&.$.$.&.&.&.&.&.&.&.&.&.&.$.$.$.$.$.$.$.$.$.$.$.$.$.$.$.$.$.$.$.$.| | | $.$.$.| | $.$.$.$.$.$.$.$.$.$.$.$.$.$.$.$.",
"&.&.;.;.&.&.&.&.$.$.&.&.&.&.&.&.&.&.&.&.$.$.$.$.$.$.$.$.$.$.$.$.$.$.$.$.$.$.$.$.| | | | $.| | | $.$.$.$.$.$.$.$.$.$.$.$.$.$.$.$.",
"&.&.;.;.&.&.&.&.$.$.&.&.&.&.&.&.&.&.&.&.$.$.$.$.$.$.$.$.$.$.$.$.$.$.$.$.$.$.$.$.| | | | $.$.| | $.$.$.$.$.$.$.$.$.$.$.$.$.&.$.$.",
">.>.>.>.;.;.;.;.&.&.&.&.&.&.&.&.&.&.&.&.&.&.&.&.&.&.&.&.&.&.&.&.&.&.&.&.&.&.&.&.$.$.$.$.$.$.$.$.$.$.&.$.$.$.$.&.$.$.$.$.&.&.&.&.",
">.>.>.>.;.;.;.;.&.&.&.&.&.&.&.&.&.&.&.&.&.&.&.&.&.&.&.&.&.&.&.&.&.&.&.&.&.&.&.&.&.$.$.$.$.$.$.$.$.$.&.$.$.$.$.$.$.$.$.$.&.&.&.&.",
";.;.>.>.>.>.;.;.&.&.&.&.&.&.&.&.&.&.&.&.&.&.&.&.&.&.&.&.&.&.&.&.&.&.&.&.&.&.&.&.$.$.$.$.$.$.$.$.$.$.$.$.$.$.$.$.$.$.$.$.&.&.&.&.",
">.;.>.>.>.>.;.;.&.&.&.&.&.&.&.&.&.&.&.&.&.&.&.&.&.&.&.&.&.&.&.&.&.&.&.&.&.&.&.&.$.$.$.$.$.$.$.$.$.$.$.$.$.$.$.$.$.$.$.$.&.&.&.&.",
"3.3.9.6.;.;.;.;.;.;.&.&.&.&.&.&.&.&.&.&.&.&.&.&.&.&.&.&.&.&.&.&.&.&.&.&.&.&.&.&.;.;.;.;.| | | -.| | | | | | | -.;.;.;.;.;.;.;.;.",
"Y Y T T ;.;.;.;.;.;.&.&.&.&.&.&.&.&.&.&.&.&.&.&.&.&.&.&.&.&.&.&.&.&.&.&.&.&.&.&.;.;.;.;.| | | | | | | | | | | -.;.;.;.;.;.;.;.;.",
"5 k v C ;.;.;.;.;.;.&.&.&.&.&.&.&.&.&.&.&.&.&.&.&.&.&.&.&.&.&.&.&.&.&.&.&.&.&.&.;.;.;.;.| | | | | | @.| | | | | ;.;.;.;.;.;.;.;.",
"> 5 v C &.;.;.| ;.;.&.&.&.&.&.&.&.&.&.&.&.&.&.&.&.&.&.&.&.&.&.&.&.&.&.&.&.&.&.&.;.;.;.;.| | | | $.| | | | | | | ;.;.;.;.;.;.;.;.",
"1 k > S { ;.| | ;.;.;.;.>.>.>.;.;.;.>.>.&.&.&.&.&.&.&.&.&.&.&.&.&.&.&.&.&.&.&.&.;.;.;.;.;.;.;.;.;.;.;.;.;.;.;.;.;.;.;.;.;.;.;.;.",
"1 k > S { ;.| | ;.;.;.;.>.>.>.>.;.;.>.;.&.&.&.&.&.&.&.&.&.&.&.&.&.&.&.&.&.&.&.&.;.;.;.;.;.;.;.;.;.;.;.;.;.;.;.;.;.;.;.;.;.;.;.;.",
"1 k 7 D | ;.| | ;.;.;.;.>.>.>.>.;.;.;.;.&.&.&.&.&.&.&.&.&.&.&.&.&.&.&.&.&.&.&.&.;.;.;.;.;.;.;.;.;.;.;.;.;.;.;.;.;.;.;.;.;.;.;.;.",
"1 k 1 D | ;.| | ;.;.;.;.>.>.>.>.;.;.;.;.&.&.&.&.&.&.&.&.&.&.&.&.&.&.&.&.&.&.&.&.;.;.;.;.;.;.;.;.;.;.;.;.;.;.;.;.;.;.;.;.;.;.;.;."
};
