/* XPM */
static char *b048b5d9390b4392dc492ca2d39cba71GY51D8EXwJW5fJvy[] = {
/* columns rows colors chars-per-pixel */
"64 64 117 2 ",
"   c #070413",
".  c #090616",
"X  c #060914",
"o  c #0A0816",
"O  c #090619",
"+  c #0C0A19",
"@  c #110C19",
"#  c #0F121D",
"$  c #13121D",
"%  c #151522",
"&  c #161A24",
"*  c #191B25",
"=  c #1C1D29",
"-  c #221F2D",
";  c #1D212A",
":  c #22232E",
">  c #252532",
",  c #262B33",
"<  c #2A2E36",
"1  c #272E3A",
"2  c #2D2F3A",
"3  c #302E3C",
"4  c #2B303B",
"5  c #31313D",
"6  c #323741",
"7  c #363942",
"8  c #393C45",
"9  c #3D4048",
"0  c #404049",
"q  c #454B4F",
"w  c #464B52",
"e  c #494D55",
"r  c #4C4F59",
"t  c #4A5057",
"y  c #4E535B",
"u  c #53555D",
"i  c #59555F",
"p  c #52585E",
"a  c #535760",
"s  c #5A5661",
"d  c #555C63",
"f  c #5A5D65",
"g  c #566166",
"h  c #5C6267",
"j  c #596267",
"k  c #576268",
"l  c #57626A",
"z  c #576469",
"x  c #596168",
"c  c #5B6068",
"v  c #596369",
"b  c #5A6269",
"n  c #59636B",
"m  c #5B636A",
"M  c #5D6368",
"N  c #5C6269",
"B  c #5D636A",
"V  c #5B6468",
"C  c #58656A",
"Z  c #5A646A",
"A  c #5B656B",
"S  c #59666B",
"D  c #5D6569",
"F  c #5E6469",
"G  c #5D656B",
"H  c #5F656A",
"J  c #5E646B",
"K  c #5E666A",
"L  c #5A646C",
"P  c #5B656D",
"I  c #5B676C",
"U  c #5A646E",
"Y  c #5B656F",
"T  c #5B676E",
"R  c #5D646D",
"E  c #5F656C",
"W  c #5C676C",
"Q  c #5E666C",
"!  c #5F676D",
"~  c #5E656E",
"^  c #5C666E",
"/  c #5D676F",
"(  c #5D686D",
")  c #5C696D",
"_  c #5C686F",
"`  c #5E696F",
"'  c #5D6A6F",
"]  c #5C6670",
"[  c #5D6971",
"{  c #5E6971",
"}  c #5E6B70",
"|  c #5D6973",
" . c #606369",
".. c #61676B",
"X. c #61666D",
"o. c #6A646D",
"O. c #6B656E",
"+. c #6C666F",
"@. c #62686D",
"#. c #6D6770",
"$. c #6C6870",
"%. c #6D6971",
"&. c #6E6871",
"*. c #6F6972",
"=. c #6E6A72",
"-. c #6F6B74",
";. c #6F6B76",
":. c #716B74",
">. c #706D75",
",. c #726C75",
"<. c #716E76",
"1. c #736F77",
"2. c #716D78",
"3. c #736F79",
"4. c #74707A",
"5. c #75717B",
"6. c #76727D",
/* pixels */
"o.o.o.o.o.o.o.o.o.o.o.o.o.o.o.o.o.o.o.+.o.o.o.o.o.o.o.o.o.o.o.o.o.o.o.o.o.o.o.o.o.o.o.o.o.o.o.o.o.o.o.o.o.o.o.o.o.o.o.o.o.o.o.o.",
"o.o.o.o.o.o.o.o.o.o.o.o.o.o.o.o.o.o.o.o.o.o.o.o.o.o.o.o.o.o.o.o.o.o.o.o.o.o.o.o.o.o.o.o.o.o.o.o.o.o.o.o.o.o.o.o.o.o.o.o.o.o.o.o.",
"o.o.o.o.o.o.o.o.o.o.o.o.o.o.o.o.o.o.o.o.o.o.o.o.o.o.o.o.o.o.o.o.o.o.o.o.o.o.o.o.o.o.o.o.o.o.o.o.o.o.o.o.o.o.o.o.o.o.o.o.o.o.o.o.",
"o.o.o.o.o.o.o.o.o.o.o.o.o.o.o.o.o.o.o.o.o.o.o.o.o.o.o.o.o.o.o.o.o.o.o.o.o.o.o.o.o.o.o.o.o.o.o.o.o.o.o.o.o.o.o.o.o.o.o.o.o.o.o.o.",
"#.#.#.#.#.#.#.#.#.#.#.#.#.#.#.#.#.#.#.#.#.#.#.#.#.#.#.#.+.+.+.+.+.+.+.+.+.+.+.+.+.+.+.+.+.+.+.+.o.o.o.o.o.o.o.o.o.o.o.o.o.o.o.o.",
"#.#.#.#.#.#.#.#.#.#.#.#.#.#.#.#.#.#.#.#.#.#.#.#.#.#.#.#.+.+.+.+.+.+.+.+.+.+.+.+.+.+.+.+.+.+.+.+.o.o.o.o.o.o.o.o.o.o.o.o.o.o.o.o.",
"#.#.#.#.#.#.#.#.#.#.#.#.#.#.#.#.#.#.#.#.#.#.#.#.#.#.#.#.+.+.+.+.+.+.+.+.+.+.+.+.+.+.+.+.+.+.+.+.o.o.o.o.o.o.o.o.o.o.o.o.o.o.o.o.",
"#.#.#.#.#.#.#.#.#.#.#.#.#.#.#.#.#.#.#.#.#.#.#.#.#.#.#.#.+.+.+.+.+.+.+.+.+.+.+.+.+.+.+.+.+.+.+.+.o.o.o.o.o.o.o.o.o.o.o.o.o.o.o.o.",
"#.#.#.#.#.#.#.#.&.&.&.&.&.&.&.&.&.&.&.&.&.&.&.&.&.&.&.&.#.#.#.#.&.&.&.#.#.#.#.#.#.#.#.#.#.#.#.#.#.#.#.#.#.#.#.#.#.#.#.#.#.#.#.#.",
"&.&.&.&.&.&.&.&.&.&.&.&.&.&.&.&.&.&.&.&.&.&.&.&.&.&.&.&.&.&.&.&.&.&.&.&.&.&.&.&.#.#.#.#.#.#.#.#.#.#.#.#.#.#.#.#.#.#.#.#.#.#.#.#.",
"&.&.&.&.&.&.&.&.:.:.:.:.:.:.:.:.:.:.:.:.:.:.:.:.:.:.:.:.&.&.&.&.&.&.&.&.&.&.&.&.#.#.#.#.#.#.#.#.#.#.#.#.#.#.#.#.#.#.#.#.#.#.#.#.",
"&.&.&.&.&.&.&.&.:.:.:.:.:.:.:.:.:.:.:.:.:.:.:.:.:.:.:.:.&.&.&.&.&.&.&.&.&.&.&.&.#.#.#.#.#.#.#.#.#.#.#.#.&.&.#.#.#.#.#.#.#.#.#.#.",
":.:.:.:.-.-.-.-.:.:.:.:.:.:.:.:.-.-.-.-.,.,.,.;.,.,.,.,.:.:.:.:.-.&.&.-.&.&.&.&.&.&.&.#.#.#.#.#.&.&.&.&.&.&.$.$.#.#.#.#.#.#.#.#.",
":.:.:.:.-.-.-.-.:.:.:.:.:.:.:.:.-.-.-.-.,.,.,.,.,.,.,.,.:.:.:.:.-.;.&.&.;.&.&.&.&.&.&.&.&.&.#.#.&.&.&.&.&.&.$.$.#.#.#.#.#.#.#.#.",
":.:.:.:.-.-.-.-.:.:.:.:.:.:.:.:.-.-.-.-.,.,.,.,.,.,.,.,.:.:.:.:.;.;.;.;.;.;.&.&.&.&.&.&.&.&.&.&.&.&.&.&.&.&.&.&.&.&.&.&.&.&.&.&.",
":.:.:.:.-.-.-.-.:.:.:.:.:.:.:.:.-.-.-.-.,.,.,.,.,.,.,.,.:.:.:.:.;.;.;.;.;.;.-.&.&.&.&.&.&.&.&.&.&.&.&.&.&.&.&.&.&.&.&.&.&.&.&.&.",
"-.-.-.-.:.:.,.,.,.,.,.,.,.,.,.,.,.,.-.-.-.-.;.-.-.-.-.-.-.-.,.,.,.,.,.,.,.,.;.-.-.&.&.&.&.&.&.&.&.&.&.&.&.&.&.&.&.&.&.&.&.&.&.&.",
":.-.-.-.:.-.-.-.,.,.,.,.,.,.,.,.,.,.,.,.,.,.1.,.,.,.,.,.,.,.,.,.,.,.,.,.,.,.,.,.,.;.,.;.,.,.-.-.&.&.&.&.&.&.&.&.&.&.&.&.&.&.&.&.",
"5.5.5.5.5.5.5.5.5.5.5.5.5.5.5.5.5.5.6.6.6.6.6.6.6.6.6.6.6.6.6.6.6.6.6.5.5.5.5.4.2.4.2.2.2.2.2.2.2.2.2.2.2.2.2.2.2.2.2.2.2.2.2.2.",
"f f f f f f f f f s s s s s s s s s s s s s s s s s s s s i i i i i i i i i i i i u u u u i i i i i i i i i i i i i i i i i i i ",
"@ + + + + + + + @ @ @ @ @ @ @ @ + + + + + + + + @ @ @ @ @ @ @ @ + + + + + + + + @ @ @ @ @ @ @ @ @ @ $ $ $ $ $ $ $ $ $ $ $ $ $ $ ",
"                                                    .               . . . . .                           . . . .         . . . . ",
". . . . . . . . . . . . . . . . . . . . . . . . .   . . . . . . . . X X X X . . . . . . . . . . + + + + . . . . . . . . . . . . ",
"O O O O O O O . . . . . . . . . . . . . . . . . . . . . . . . . . O O O O O O . . . . . . . . . . O O O O . O . . . . . .       ",
"O O O O O O O O O O O O O O O O O O O O O O O O O O O O O O O O O O O O O O O O O O O O O O O O O O O O O O O O O O O O O O O O ",
"O O O O O O O O O O O O O O O O O O O O O O O O O O O O O O O O O O O O O O O O O O O O O O O O O O O O O O O O O O O O O O O O ",
"O O O O O O O O O . . . . . . . . . . . . . . . . . . . . . . O O O O O O O O O O . + + O + + O O O O O O O O O O . . . . . . . ",
"O O O O O O O O . . . . . . . . . . . . . . . . . . . . . . . . O O O O O O O O . . + + + + + + O O O O O O O O . . X X . . . . ",
"O O O O O O O O . . . . . . . . . . . . . . . . . . . . . . . . O O O O O O O O + + + + + + + + O O O O O O O O . . . . X X . . ",
". O O O O O O . . . . . . . . . . . . . . . . . . . . . . . . . . O O O O O O + + + + + + + + + O O O O O O O . . . . . X X X . ",
"X . . . . X X X X X X X X X X X X X X X X X X X X X X X X X X X X + + + + + O . X X X X X X X + . . . . . . . . . . . . X . . . ",
"  X X X X X X X X X X X X X X X X X X X X X X X X X X X X X X X + X X X X X . . . X X X X X X X . . . . . . . . .       X X     ",
"* * * * & & & & * * * * & & & * * * * * * * * * * * * * = = = = : : : : : : : : : : : : : : : : = = = = = = = = % $ $ $ $ $ $ $ ",
"p p p p u u u u p p p p p p p p p p p p d d d d d d d d y y y y y y y y y y y y y y y y y y y y y y y r r r r e e e e e e e e e ",
"....@.@.........@.@.@.@.@.@.@.@.@.@.@.@.........X.X.X.X.E E E E D D D D D D D D E E E D E E E E D D D D D D D E D D D D D D D  .",
"V V D D M M M M D D D D D D D D D D D V M h h h M M M M c c c c M M M M M c c c M M M M M M D D M M M M D D D D D D D D D D D D ",
"j j j j D D D D D D D D D D D D E E E E E E E D D M M M c c c c c c c c c c c c c c c D E E E E D D V V D D D D E E E E D D D D ",
"j j V V M M D D D D D D D D D D D D D D D D D D M M M M c c c c c c c c c c V V c V E E E E ( ( ( ( E T E E E E ( ( ( ( ( E E E ",
"j j j j j j j j j j j j j j j j c c c c c c c c c c c c c k k k k k k k c z z z V V T T T T ( ( _ _ ( ( { { { { { { { { ( ( ( ( ",
"j j j j j j j j j j j j j j j j c c c c c c c c j j j j g g g g k k k k c z V V V V T T T T ( ( ( _ _ ( { { | { { { { { ( ( ( ( ",
"c c c f f f f f f f f f f f f f f f f f f f f f f f f f d d d d d d g d d d k k k k V V T T ] ] E E { { E E ] ] ( ( ( ( V c c c ",
"f f f f f f f f f f f f f f f f d d d d d d d d d d d d d d d d d d d d k k c c c c V V T T ] E E E E E E E E T V c c c c c c c ",
"d d a a d d d d d d d d d d d d d d d d d d d d p p p p u p u u p p p p y y p p p p d a a a d d d d f f d d d d d d d d d d d d ",
"y y y y y y y y u y y y y y y y y y u u u u u u u u u u t t t t t t t t w w w w w w w w e e e e u u p p a a a a u y u u y y y y ",
"< < < < < < < < , , , , , , < < < < 4 4 4 4 4 4 4 4 4 4 4 4 4 4 4 4 6 4 7 7 7 7 8 8 8 8 9 9 9 9 8 8 8 0 8 8 8 8 8 8 8 8 7 7 7 7 ",
"< < < < < < < , , , , , , , , , , , , , , , , , > > > > > > > > > > , ; ; ; ; ; ; ; ; ; ; = = = * * * > 2 2 2 2 2 2 2 2 2 2 2 2 ",
"< < < < < < < < < < < < , , , , , , , , , , , , , , , , , , , , > , , % $ $ $ $ $ $ $ $ + + + +   + + - < < < < < < < < 2 2 2 2 ",
"< < < < < < < < < < < < < , < < 2 2 4 2 2 < < < , , , , < < < < , < , # + + + + + + + + + + + +   X X > 2 2 2 2 2 2 2 2 < < < < ",
"4 4 2 2 2 2 2 2 2 2 2 2 2 2 2 2 2 2 2 2 2 2 2 2 2 1 1 1 2 2 2 < , , > # + + + + + + + + + + . . . . + > 2 2 2 2 2 2 2 2 2 2 2 2 ",
"4 4 2 2 2 2 2 2 2 2 2 2 2 2 2 2 2 2 2 2 2 2 2 2 1 1 1 1 2 2 2 2 , < , # X X X X + + + + . . . . . . + > 2 2 2 2 2 2 2 2 2 2 2 2 ",
"2 2 2 2 2 2 2 2 2 2 2 2 2 2 2 2 2 2 2 2 2 2 2 2 1 1 1 1 2 2 2 2 < 4 , $ + + + + + + + + . . . . . . + > 2 2 2 4 2 2 2 2 2 2 2 2 ",
"2 2 2 2 2 2 2 2 2 2 2 2 2 2 2 2 2 2 2 2 2 2 2 2 1 1 1 1 2 2 2 2 2 4 , % + + + + + + + + . . . . . . + > 2 2 4 4 2 2 2 2 2 2 2 2 ",
"2 2 2 2 2 2 2 2 2 2 2 2 2 2 2 2 2 2 2 2 2 2 2 2 4 4 4 4 2 2 2 2 1 4 2 & + + + + + + + + + + + + . . @ 3 5 4 4 4 2 2 2 2 2 2 2 2 ",
"2 2 2 2 2 2 2 2 2 2 2 2 2 2 2 2 2 2 2 2 2 2 2 2 4 4 4 4 2 2 2 2 1 4 2 & + + + + + + + + + + + + . . @ 3 5 4 4 4 2 2 2 2 2 2 2 2 ",
"2 2 2 2 2 2 2 2 2 2 2 2 2 2 2 2 2 2 2 2 2 2 2 2 4 4 4 4 1 1 2 2 1 4 4 & + + + + + + + + + + + + + + % 5 5 4 4 4 2 2 2 2 2 2 2 2 ",
"2 2 2 2 2 2 2 2 2 2 2 2 2 2 2 2 2 2 2 2 2 2 2 2 4 4 4 4 1 1 2 2 2 4 4 & + + + + + + + + X X + + + + % 5 5 4 4 4 2 2 2 2 2 2 2 2 ",
"2 2 2 2 2 2 2 2 2 2 2 2 2 2 2 2 4 4 4 4 4 4 4 4 4 4 4 4 4 4 4 4 2 4 4 ; + + + + + + + + + + + + + + % 5 2 2 2 2 2 2 2 2 2 2 2 2 ",
"2 2 2 2 2 2 2 2 2 2 2 2 2 2 2 2 4 4 4 4 4 4 4 4 4 4 4 4 4 4 4 4 2 4 4 ; + + + + + + + + + + + + + + * 5 2 2 2 2 2 2 2 2 2 2 2 2 ",
"2 2 2 2 2 2 2 2 2 2 2 2 2 2 2 2 4 4 4 4 4 4 4 4 4 4 4 4 4 4 4 4 4 4 4 ; + + + + + + + + + + + + + + * 5 2 2 2 2 2 2 2 2 2 2 2 2 ",
"2 2 2 2 2 2 2 2 2 2 2 2 2 2 2 2 4 4 4 4 4 4 4 4 4 4 4 4 4 4 4 4 4 4 4 ; + + + + + + + + + @ + + + + * 5 2 2 2 2 2 2 2 2 2 2 2 2 ",
"2 2 2 2 2 2 2 2 2 2 2 2 2 2 2 2 4 4 4 4 4 4 4 4 4 4 4 4 4 4 4 4 4 4 4 > + + + + + $ % * * * & & $ * > 2 2 2 2 2 2 2 2 2 2 2 2 2 ",
"2 2 2 2 2 2 2 2 2 2 2 2 2 2 2 2 4 4 4 4 4 4 4 4 4 4 4 4 4 4 4 4 4 1 1 , & = - - > > < 2 2 2 2 2 > < 2 5 2 2 2 2 2 2 2 2 2 2 2 2 ",
"2 2 2 2 2 2 2 2 2 2 2 2 2 2 2 2 4 4 4 4 4 4 4 4 4 4 4 4 4 4 4 4 4 1 1 2 2 2 3 3 2 2 2 2 2 2 2 2 4 4 4 2 2 2 2 2 2 2 2 2 2 2 2 2 ",
"2 2 2 2 2 2 2 2 2 2 2 2 2 2 2 2 4 4 4 4 4 4 4 4 4 4 4 4 4 4 4 4 4 1 2 1 1 2 2 2 2 2 2 2 2 2 2 2 2 2 2 2 2 2 2 2 2 2 2 2 2 2 2 2 "
};
