/* XPM */
static char *_4e88ccb273242c0e1fb0ee70e726a83V2bgSPDCYLtyUY1g[] = {
/* columns rows colors chars-per-pixel */
"64 64 119 2 ",
"   c #050514",
".  c #090616",
"X  c #050917",
"o  c #0A0916",
"O  c #09061A",
"+  c #050C1A",
"@  c #0B0A1A",
"#  c #100B19",
"$  c #0D101C",
"%  c #161924",
"&  c #1B1E29",
"*  c #1E232C",
"=  c #1E2530",
"-  c #21232D",
";  c #242632",
":  c #262A34",
">  c #2A2D36",
",  c #272C39",
"<  c #2B2E39",
"1  c #2D313B",
"2  c #31333D",
"3  c #32383F",
"4  c #323540",
"5  c #353B45",
"6  c #373F48",
"7  c #3D434B",
"8  c #3C4550",
"9  c #3E4852",
"0  c #414650",
"q  c #454B54",
"w  c #4C4B57",
"e  c #494F58",
"r  c #504C56",
"t  c #514D59",
"y  c #4A5057",
"u  c #4E545C",
"i  c #55525D",
"p  c #4D5462",
"a  c #4E5A66",
"s  c #505760",
"d  c #545B63",
"f  c #595E64",
"g  c #5A5F68",
"h  c #5A6166",
"j  c #57626A",
"k  c #5C646B",
"l  c #5D696D",
"z  c #5F6C73",
"x  c #5E6A71",
"c  c #60636B",
"v  c #60636D",
"b  c #61666D",
"n  c #61646E",
"m  c #62676F",
"M  c #62676E",
"N  c #6B656C",
"B  c #6A646D",
"V  c #6B656E",
"C  c #6C666D",
"Z  c #6C666F",
"A  c #6C696C",
"S  c #6C686E",
"D  c #6D686E",
"F  c #6E696F",
"G  c #6D6A6F",
"H  c #6E6B6E",
"J  c #636671",
"K  c #6D6770",
"L  c #616970",
"P  c #606A70",
"I  c #616B71",
"U  c #626A71",
"Y  c #636872",
"T  c #606A72",
"R  c #616B73",
"E  c #626A73",
"W  c #636E73",
"Q  c #616B75",
"!  c #626C74",
"~  c #636D75",
"^  c #626E75",
"/  c #606C76",
"(  c #636D77",
")  c #626E77",
"_  c #626A71",
"`  c #6D6971",
"'  c #6E6871",
"]  c #6F6A70",
"[  c #6E6B70",
"{  c #6F6972",
"}  c #6E6A72",
"|  c #6F6C71",
" . c #6F6B74",
".. c #646E78",
"X. c #716B71",
"o. c #706D71",
"O. c #706D73",
"+. c #726C73",
"@. c #716F72",
"#. c #706D75",
"$. c #716E74",
"%. c #706C77",
"&. c #716E76",
"*. c #736F77",
"=. c #716D78",
"-. c #736F79",
";. c #677179",
":. c #6A747C",
">. c #6B757D",
",. c #6C777F",
"<. c #69717C",
"1. c #747078",
"2. c #74707A",
"3. c #6E7880",
"4. c #6F7883",
"5. c #6E7C85",
"6. c #717B85",
"7. c #707C85",
"8. c #727984",
/* pixels */
"C C C C C C C C N N N N N N N N N N N N N N N N N N N N N N N N N N N N N N N N N N N B N N N N N N N N N N N B N N N N N N N N ",
"C C C C C C C C N N N N N N N N N N N N N N N N N N N N N N N N N N N N N N N N N N B N N N N N N N N N N N N B N N N N N N N N ",
"C C C C C C C C N N N N N N N N N N N N N N N N N N N N N N N N N N N N N N N N N N N B N N N N N N N N N N B N N N N N N N B N ",
"C C C C C C C C N N N N N N N N N N N N N N N N N N N N N N N N N N N N N N N N N N N N N N N N N N N N N N N N N N N N N B N N ",
"F F F F F F F F F F F F F F F F K K C C C C K K N N N N N N N N N N N N N N N N N N N N N N N N C C C C C C C C K K K K C C K K ",
"F F F F F F F F F F F F F F F F K K C C C C K K N N N N N N N N N N N N N N N N N N N N N N N N C C C C C C K C K K K K C C K K ",
"F F F F F F F F F F F F F F F F K K K C C C C K N N N N N N N N N N N N N N N N N N N N N N N N C C C C K K K K K K C C C C K K ",
"F F F F F F F F F F F F F F F F K K K K C C C K N N N N N N N N N N N N N N N N N N N N N N N N C C K K K K K K C C C C C C K K ",
"] ] ] ] ] ] ] ] F F F F F F F F F F F F F F C C C C C C C C C C C C C C C C C C K K K K N N N N C K K K K K K C K K K K K K K K ",
"] ] ] ] ] ] ] ] F F F F F F F F F F F F F F F F F F F F F F F F F F F F F F F F K K K K K K K K K K K K K K K K ] ] ] ] ] ] ] ] ",
"] ] ] ] ] ] ] ] F F F F F F F F F F F F F F F F ] ] ] ] F F F F F F F F F F F F ] ] ] ] ] ] ] ] ] ] ] ] ] ] K K ] ] ] ] ] ] ] ] ",
"] ] ] ] ] ] ] ] F F F F F F F F F F F F F F F F ] ] ] ] F F F F F F F F F F F F ] ] ] K K K ] ] ] ] ] ] ] K K K ] ] ] ] ] ] ] ] ",
"+.+.+.+.+.+.+.+.X.X.X.X.X.X.X.X.] ] ] ] ] ] ] ] F F F F F F F F F F F F F F F F ] ] ] ] ] ] ] ] ] ] ] ] ] ] ] ] ] ] ] ] ] ] ] ] ",
"+.+.+.+.+.+.+.+.X.X.X.X.X.X.X.X.] ] ] ] ] ] ] ] F F F F F F F F F F F F F F F F ] ] ] ] ] ] ] ] ] ] ] ] ] ] ] ] ] ] ] ] ] ] ] ] ",
"+.+.+.+.+.+.+.+.X.X.X.X.X.X.X.X.] ] ] ] ] ] ] ] F F F F F F F F F F F F F F F F ] ] ] ] ] ] ] ] ] ] ] ] ] ] ] ] ] ] ] ] ] ] ] ] ",
"+.+.+.+.+.+.+.+.X.X.X.X.X.X.X.X.] ] ] ] ] ] ] ] F F F F F F F F F F F F F F F F ] ] ] ] ] ] ] ] ] ] ] ] ] ] ] ] ] ] ] ] ] ] ] ] ",
"@.@.@.@.+.+.+.+.+.+.+.+.| | | | F F F F F F H H F F F F F F F F A A F F F F F F F F F F F F ] ] | | | | | | | ] ] F F F F F F F ",
"%.+.+.+.%.%.%.%.+.+.+.+.| O. .+.] ] ] ] ] ] | | | ] ] ] ] ] ] ] F F F F F F F F F ] ] ] ] ] ] ]  . . . . . . . .] ] ] ] ] ] ] ] ",
"*.*.*.*.%.%.%.%.%.%.%.%.%.%.%.%. . . . . . . . .1.1.1.1.1.1.1.1.*.*.*.*.%.%.%.%.%.-.-.-.-.-.-.-.-.-.-.-.-.-.-.-.1.1.1.1.1.1.1.1.",
"i i i i i i i i i i i i i i i i i i i t t t t t t t t t t t t t r r r r r r r r t w t w w w w w w w w w w w t t t t t t t t t t ",
"o o o o # # # # # @ @ @ @ @ # # @ @ @ @ @ @ @ @ # # # # o o o o o o o o o o o o o o @ @ @ @ @ @ @ @ @ @ @ @ @ @ @ @ @ @ @ @ @ @ ",
"o . . . . . . . . O O O O O O O . . . . . . . . O O O O O O O O o o O O . . . . O O O O O O O O O O O O O O O O O O O O O O O O ",
"o . . . . . . . O O O O O O O O O O O O O O O O O O O O O O O O O O O O O O O O O O O O O O O O O O O O O O O O O O O O O O O O ",
". O O O O O O O O O O O O O O O O O O O O O O O O O O O O O O O O O O O O O O O O O O O O O O O O O O O O O O O O O O O O O O O ",
"O O O O O O O O O O O O O O O O O O O O O O O O O O O O O O O O O O O O O O O O O O O O O O O O O O O O O O O O O O O O O O O O ",
"O O O O O O O O O O O O O O O O O O O O O O O O O O O O O O O O O O O O O O O O O O O O O O O O O O O O O O O O O O O O O O O O ",
"O O O O O O O O O O . . O O O O O O O O O O O O O O O O O O O O O O O O O O O O O O O O O O O O O O O O O O O O O O O O O O O O ",
"O O O O O O O O O . . . O O O O O O O O O O O O O O O O O O O O O O O O O O O O O O O O O O O O O O O O O O O O O O O O O O O O ",
"O O O O O O O O O O O O O O O O O O O O O O O O O O O O O O O O O O O O O O O O o o o o o o o o O O O O O O O O O O O O o O O O ",
"O O O O O O O O O O O O O O O O O O O O O O O O O O O O O O O O O O O O O O O O o o o o o o o o O O O O O O O O O O O O O O O O ",
"O O O O O O O O . . . . . . . . . . . . . . . . . . . . . . . . . . . . . . O O O X X X X X X . . . . . . . . . . . . . . . . . ",
"                                                                            . . .                                               ",
"  + * ; = * * * * = ; ; ; ; ; ; ; - - * & & & & % % % % % % % % & & * * * * - - - - - - : : : : : : : : : : : : < < < 1 > > > > ",
"  5 Q ..x l l l l l l l R R R R R J b v k k k k v v v v k k v v v v v k k k k k k k k k k k k k k c c c c c c c k k k k f f f f ",
"  8 :.R k k k k k l l l l k k k k k f f k k k k b b b b b b b b b b b l l k k k k k k k k k g g h h h h h h h f f f f f f f f f ",
"+ 7 ;.R l l l l l l l l l l l l l k k k k k k k k k k k k k k k k k k k k k l k k k k k k k k k h h h h h h h h h h h f f f f f ",
"X 9 :.x l l l l l l l l l l l l l l l l k k l l k k k k k k k k k k k k k k k k k k k k k k k k k k k k k k k h h h h h h f f f ",
"X q :.x l l l l l l l l l l l l l l l l k k k k k k k k k k k k k k k k k k k k k k k k k k k k k k k k k h h h h h h h h f f f ",
"X u 3.! l l l l l l l l l l l l l l k k k l l l l l l l l l l k k k k k k k k k k k k k k k k k k k h h h h h h h h h h h f f f ",
"X p 3.! x l x l l l l l l l l l k k k k k k k l l l l l l l l k k k k k k k k k k k k k k k k k k h h h h h h h h h h h h f f f ",
"X a 7.! z x l l l l l l l l l l l k l j l l l k k k k k k k k k k k k j k k k k k k k k g g g g f f f f f f f f f f f f f f f f ",
"X a 5.! ! z x l l l l l l l l l R k l k k k k k k k k k l l l l k k k k d d d d f f d d f f f f h h h h f f f f f f f f f f d d ",
"X a 7.! ! ! R R R P P P R R R R d u u s u u u u s s s s d d d d d d d s s s s s d d s s s s d d d d d d d d d d d d d d d d d d ",
"X d 6.! ! ! W R R R R R R R R R 0 5 6 7 7 7 7 7 0 0 0 0 q q q q q q q q q q w w w w q q q w w e y y y y u u u u u u u u u u i i ",
"X p 6.<.R R R R P b b b b R b k 2 : : : ; ; ; ; ; : : : > : : > 1 1 1 1 2 2 2 1 1 1 1 1 1 1 2 2 2 2 2 2 2 2 2 2 2 2 2 2 3 3 3 3 ",
"  , 5 5 7 7 7 7 0 0 0 0 u i u w > - - ; : : : : : : > > : : : : : : : : > > > > , , , , , , , , , : , , , , , , , , , , > > > > ",
"@ , 1 1 2 2 2 2 2 2 2 2 3 5 3 2 ; ; ; : : : : : > > > > > > > > > > > > < < , , , , 1 1 1 , , , > > > > > > > > > > > > > > > > ",
". , 1 4 4 4 2 2 2 2 2 2 2 2 2 > : : : < > > : : > > > > > > > > > > < < 1 1 1 < < < 1 1 1 1 1 , > > > > > > > > > > > > 1 1 1 1 ",
"+ > 2 1 2 2 2 2 2 2 2 2 1 1 < , : : : : > > > > > > > > > > > > < < , , , , , , < < < < < < < < < < , , , , , < < < < < < < < < ",
"+ > 2 1 2 2 2 2 2 2 2 2 1 1 < , : : : : > > > > > > > > > > > > < < < < , , , , < < < < < < , , < < , < , , < < < < < < < < < < ",
"+ > 2 1 2 2 2 2 2 2 2 2 1 1 < , > > > > > > > > > > > > > > > > < < < < < < < < , < , , < , , , < < < < < < < < < < < < < < < < ",
"+ > 2 1 2 2 2 2 2 2 2 2 1 1 < , < < < < > > > > > > > > > > > > < < < < < < < < , , , , < , , , < < < < < < < < < < < < < < < < ",
"$ : 2 2 1 1 1 1 1 1 1 1 1 1 1 1 < , , , > > > > , < < < < < < < < < < < < < < < < < < , , , , , , , < < 1 < < < < < < < < < 1 1 ",
"$ : 2 2 1 1 1 1 1 1 1 1 1 1 1 1 < , , , > > > > , , < < < < < < < < < < < < , < < < < < , , , , , , < < < < < < < < < < < < < 1 ",
"$ : 2 2 1 1 1 1 1 1 2 2 1 1 1 1 < < , , > > > > , , < < < < , , < < < < , , , , < < < < , , , , , , 1 1 < < 1 1 < < < < < < 1 1 ",
"$ : 2 2 2 1 1 1 1 2 2 2 1 1 1 1 < < , , > > > > , , , < < < , , , , < < < , , , < < < < < , , 1 , , 1 1 < < 1 1 < < < < < < 1 1 ",
"@ : 4 1 1 1 2 2 1 1 1 1 < < < < < < < < , , , < < < < < < < , , , , , , , , , 1 1 1 1 1 , , , > , 1 1 1 4 1 2 2 2 2 2 2 2 2 2 2 ",
"@ : 4 1 1 1 2 2 1 1 1 1 < < < < < < < < , , , , < < < < < < , , , , , , , , , , 1 1 1 1 , , , 1 , , 1 1 : : : : ; - - - - - - - ",
"@ : 4 1 1 1 1 1 1 1 1 1 < < < < , , < , < , < < , < < < < < < < 1 1 , , , , , , , , 1 1 , , , , 1 1 , , + + o o o . . . o o o o ",
"@ : 4 1 1 1 1 2 1 1 1 1 < < < < , , , , < < < < , < < < < < < < 1 1 1 , , , , 1 , , , 1 , , , , 1 1 , : X X o o o @ @ O o O O . ",
"+ : 2 1 1 1 1 1 < < < < < < < < , < < < , , < < , , < < < < < < 1 1 , , , , 1 1 1 1 1 1 1 1 1 1 1 1 1 : X X o o O O O O O O O O ",
"+ : 2 1 1 1 1 1 < < < < < < < < < < < < , , < < , , < < < < < , 1 1 , , , , 1 1 1 1 1 1 1 1 1 1 1 1 1 : X X o o O O O O O O O O ",
"+ : 2 1 1 1 1 1 < < < < < < < < < < < < , , < < , < < < < , , , 1 , , , , 1 1 1 1 1 1 1 1 1 1 1 1 1 1 : X X o o o O O O O O O O ",
"@ : 2 1 1 1 1 1 < < < < < < < < < < < < , , < < , < < < , , , , 1 1 , , 1 1 1 1 1 1 1 1 1 1 1 1 1 1 1 : X o o o o o o o O O O O "
};
