/* XPM */
static char *_d03dd684c96499392ad7f01d0124954pv5OPMX3RNAnz6Vm[] = {
/* columns rows colors chars-per-pixel */
"64 64 216 2 ",
"   c #000001",
".  c #000003",
"X  c #000004",
"o  c #000006",
"O  c #030007",
"+  c #02030A",
"@  c #040008",
"#  c #050208",
"$  c #05030B",
"%  c #06030B",
"&  c #03040B",
"*  c #02030C",
"=  c #02000E",
"-  c #05010C",
";  c #06020D",
":  c #06020F",
">  c #03040D",
",  c #07040C",
"<  c #06050C",
"1  c #06040E",
"2  c #05060F",
"3  c #08010D",
"4  c #09050F",
"5  c #050211",
"6  c #050213",
"7  c #070312",
"8  c #060410",
"9  c #070511",
"0  c #050611",
"q  c #050513",
"w  c #070513",
"e  c #060314",
"r  c #060316",
"t  c #050515",
"y  c #070415",
"u  c #050517",
"i  c #070417",
"p  c #070616",
"a  c #090411",
"s  c #0B0510",
"d  c #080710",
"f  c #090413",
"g  c #080612",
"h  c #0D0611",
"j  c #0E0713",
"k  c #090315",
"l  c #090317",
"z  c #0A0514",
"x  c #090715",
"c  c #0B0615",
"v  c #080516",
"b  c #080717",
"n  c #090717",
"m  c #0C0717",
"M  c #090811",
"N  c #0A0817",
"B  c #0C0815",
"V  c #0D0916",
"C  c #0E0A17",
"Z  c #070319",
"A  c #07031B",
"S  c #050419",
"D  c #070618",
"F  c #05041B",
"G  c #07051A",
"H  c #06071B",
"J  c #07051C",
"K  c #090319",
"L  c #09021B",
"P  c #080518",
"I  c #090619",
"U  c #080719",
"Y  c #08051A",
"T  c #09061B",
"R  c #08071B",
"E  c #08061D",
"W  c #09071F",
"Q  c #060819",
"!  c #07091B",
"~  c #07091D",
"^  c #07081F",
"/  c #090919",
"(  c #0A0819",
")  c #09081B",
"_  c #0A0A1A",
"`  c #0D0818",
"'  c #09081D",
"]  c #0A091C",
"[  c #080A1C",
"{  c #0A0B1D",
"}  c #0A091E",
"|  c #080A1E",
" . c #0A0B1F",
".. c #100C14",
"X. c #100B1A",
"o. c #110C19",
"O. c #110C1B",
"+. c #160F1B",
"@. c #1F1C1F",
"#. c #070821",
"$. c #080920",
"%. c #0A0B21",
"&. c #080922",
"*. c #1C1921",
"=. c #201C24",
"-. c #231F2A",
";. c #242426",
":. c #26272E",
">. c #2B2C32",
",. c #36323E",
"<. c #36343C",
"1. c #39323E",
"2. c #373340",
"3. c #373242",
"4. c #383441",
"5. c #393542",
"6. c #383443",
"7. c #393544",
"8. c #3B3645",
"9. c #3C3746",
"0. c #3D3945",
"q. c #403C49",
"w. c #46434B",
"e. c #44404C",
"r. c #4E4753",
"t. c #554E5C",
"y. c #57515A",
"u. c #5B545F",
"i. c #625F65",
"p. c #635F6C",
"a. c #65616B",
"s. c #67616A",
"d. c #66626A",
"f. c #67636B",
"g. c #65606D",
"h. c #66626C",
"j. c #67636D",
"k. c #66616E",
"l. c #67636F",
"z. c #686369",
"x. c #6A646B",
"c. c #69666A",
"v. c #69606C",
"b. c #68626D",
"n. c #68646D",
"m. c #6B656C",
"M. c #6A646D",
"N. c #68646F",
"B. c #6A676F",
"V. c #6C666D",
"C. c #6E666D",
"Z. c #6C666F",
"A. c #6F676E",
"S. c #66686C",
"D. c #6C686E",
"F. c #6D686E",
"G. c #6E696F",
"H. c #6D6A6F",
"J. c #70686F",
"K. c #696570",
"L. c #686471",
"P. c #6B6470",
"I. c #6A6671",
"U. c #696572",
"Y. c #6B6472",
"T. c #6A6673",
"R. c #6E6571",
"E. c #6D6770",
"W. c #6C6671",
"Q. c #6D6772",
"!. c #6F6672",
"~. c #6D6674",
"^. c #6C6774",
"/. c #6C6870",
"(. c #6D6971",
"). c #6E6871",
"_. c #6F6A70",
"`. c #6C6872",
"'. c #6D6973",
"]. c #6F6972",
"[. c #6E6873",
"{. c #6F6C71",
"}. c #6F6974",
"|. c #6E6875",
" X c #6F6B74",
".X c #6F6976",
"XX c #6F6D75",
"oX c #706773",
"OX c #706871",
"+X c #716B71",
"@X c #716972",
"#X c #706D73",
"$X c #726C73",
"%X c #716874",
"&X c #716B74",
"*X c #726976",
"=X c #716A76",
"-X c #726B77",
";X c #706D75",
":X c #726C75",
">X c #736D76",
",X c #716E76",
"<X c #706F76",
"1X c #736F77",
"2X c #746E77",
"3X c #736D78",
"4X c #756F78",
"5X c #746E79",
"6X c #717077",
"7X c #727178",
"8X c #727379",
"9X c #767079",
"0X c #76707B",
"qX c #73747A",
"wX c #76757A",
"eX c #77747C",
/* pixels */
"p.p.p.p.p.p.g.g.a.a.g.g.g.g.g.g.g.g.g.g.g.g.g.g.a.a.a.a.a.a.a.a.z.z.z.a.a.a.z.z.z.z.z.z.z.z.z.z.z.z.z.z.c.c.c.c.c.c.c.z.n.n.Z.Z.",
"p.p.p.p.p.p.g.g.a.a.g.g.g.g.g.g.g.g.a.a.g.g.g.g.a.a.a.a.a.a.a.a.z.z.a.a.a.a.z.z.z.z.z.z.z.z.z.z.z.z.z.z.c.c.c.c.c.c.c.c.n.n.Z.Z.",
"g.g.g.g.p.p.g.g.a.a.g.g.g.l.l.l.g.g.a.a.g.g.g.g.a.a.a.a.a.a.a.a.z.z.z.z.a.a.a.a.z.z.z.z.z.z.z.z.z.z.z.z.c.c.c.c.c.c.c.c.n.Z.Z.Z.",
"g.g.g.g.p.p.g.g.g.g.g.g.g.g.l.l.g.g.g.a.g.g.g.g.a.a.a.a.a.a.a.a.z.z.z.z.a.a.a.a.z.z.z.z.z.z.z.z.z.z.z.z.z.c.c.c.c.c.c.c.Z.Z.Z.Z.",
"g.g.g.g.g.g.g.g.L.L.g.g.g.g.n.n.n.n.n.n.L.L.n.n.n.n.n.n.n.n.n.n.n.n.n.n.n.n.n.n.n.n.Z.Z.Z.Z.c.c.n.n.c.c.Z.Z.Z.Z.Z.Z.Z.Z.D.D.D.D.",
"g.g.g.g.g.g.g.g.n.n.g.g.g.g.g.n.n.n.n.n.L.L.n.n.n.n.n.n.n.n.n.n.n.n.n.n.n.n.n.n.n.n.Z.Z.Z.Z.c.c.n.n.n.c.Z.Z.Z.Z.Z.Z.Z.Z.D.D.D.D.",
"g.g.L.L.l.l.g.g.n.n.n.n.n.n.L.L.n.n.n.n.L.L.n.n.n.n.n.n.n.n.n.n.n.n.n.n.n.n.n.n.n.n.n.n.m.m.m.c.n.Z.c.c.Z.Z.Z.Z.Z.Z.Z.Z.D.D.D.D.",
"g.g.L.L.L.g.g.g.n.n.n.n.n.n.L.L.n.n.n.n.L.L.n.n.n.n.n.n.n.n.n.n.n.n.n.n.n.n.n.n.n.n.n.n.m.m.m.c.Z.Z.c.c.Z.Z.Z.Z.Z.Z.Z.Z.D.D.D.D.",
"g.g.g.g.L.L.L.L.L.L.L.L.L.L.L.L.L.B.B.B.n.n.n.n.Z.Z.Z.Z.Z.Z.Z.Z.Z.Z.Z.Z.Z.Z.Z.Z.Z.Z.Z.Z.Z.Z.Z.Z.D.D.D.D.D.D.D.D.D.D.D.D.D.D.D.D.",
"g.g.l.g.L.L.L.L.L.L.L.L.L.L.L.L.L.B.B.B.n.n.n.n.Z.Z.Z.Z.Z.Z.Z.Z.Z.Z.Z.Z.Z.Z.Z.Z.Z.Z.Z.Z.Z.Z.Z.Z.D.D.D.D.D.D.D.D.D.D.D.D.D.D.D.D.",
"L.L.L.L.L.L.L.L.L.L.L.L.L.L.L.L.L.n.B.B.n.B.n.n.Z.Z.Z.Z.Z.Z.Z.Z.Z.Z.Z.Z.Z.Z.Z.Z.Z.Z.Z.Z.Z.Z.Z.Z.D.D.D.D.D.D.D.D.D.D.D.D.D.D.D.D.",
"L.L.L.L.L.L.L.L.L.L.L.L.L.L.L.L.L.n.B.B.B.B.n.n.Z.Z.Z.Z.Z.Z.Z.Z.Z.Z.Z.Z.Z.Z.Z.Z.Z.Z.Z.Z.Z.Z.Z.Z.D.D.D.D.D.D.D.D.D.D.D.D.D.D.D.D.",
"L.L.L.L.L.L.L.L.T.T.L.L.L.L.T.L.`.`.`.`.`.`.`.D.E.E.E.E.E.E.E.E.D.D.D.D.D.D.D.D.A.A.A.A.Z.Z.Z.A.D.D.D.D.D.D.D.D.+X+X`.`.`.`.J.J.",
"L.L.L.L.L.L.L.L.T.T.L.L.L.L.T.T.`.`.`.`.`.`.`.`.E.E.E.E.E.E.E.E.D.D.D.D.D.D.D.D.A.A.A.A.Z.Z.A.A.D.D.D.D.D.D.D.D.+X+X`.`.`.`.J.J.",
"L.L.L.L.L.L.L.L.|.|.|.|.^.^.^.|.`.`.`.`.`.`.`.`.E.E.E.E.E.E.E.E.D.D.D.D.D.D.D.D.A.A.A.A.Z.Z.Z.Z.D.D.D.D.D.D.D.D.+X+X+X`.`.`.D.J.",
"L.L.L.L.L.L.L.L.|.|.|.|.^.^.^.`.`.`.`.`.`.`.`.`.E.E.E.E.E.E.E.E.D.D.D.D.D.D.D.D.Z.A.A.A.Z.Z.Z.Z.D.D.D.D.D.D.D.D.+X+X+X+X`.`.J.J.",
"L.L.L.L.L.L.L.^.`.`.`.`.`.`.`.`.`.D.D.D.`.`.`.`.D.D.D.D.D.D.D.D.D.D.D.D.D.D.D.D.A.A.A.A.J.J.J.J.J.J.J.J.`.`.`.`.=X=X=X=X+X+X+X$X",
"L.L.L.T.L.L.L.^.`.`.`.`.`.`.`.`.D.D.D.D.`.`.`.`.D.D.D.D.D.D.D.D.D.D.D.D.D.D.D.D.A.A.A.A.J.J.J.J.J.J.J.J.`.`.`.`.=X=X=X`.`.+X$X$X",
"L.L.L.L.L.L.^.^.`.`.`.`.`.`.`.`.`.`.`.`.`.`.D.D.D.D.D.D.D.D.D.D.D.D.D.D.D.D.D.D.Z.Z.A.Z.J.J.J.J.J.+X+XJ.`.`.+X+X=X=X=X=X`.4X9X>X",
"L.L.L.L.L.L.^.^.`.`.`.`.`.`.`.`.`.`.`.`.`.`.`.D.D.D.D.D.D.D.D.D.D.D.D.D.D.D.D.D.Z.Z.Z.Z.J.J.J.J.`.`.+X`.`.`.+X+X+X=X=X=X9X9Xn.y.",
"L.L.L.L.L.^.^.^.`.`.`.`.`.`.`.`.`.`.`.`.`.`.`.`.D.D.D.D.D.D.D.D.D.D.D.D.D.D.D.D.J.J.J.J.J.J.J.J.`.`.$X$X+X+X+X+X>X+X+X+X|.r.+.h ",
"L.L.L.L.L.^.^.^.`.`.`.`.`.`.`.`.`.`.`.`.`.`.`.`.D.D.D.D.D.D.D.D.D.D.D.D.D.D.D.D.J.J.J.J.J.J.J.J.`.`.$X$X+X+X+X+X2X2X>Xa.1.g 3 h ",
"L.L.L.L.^.^.^.^.`.`.`.`.`.`.`.`.`.`.`.`.`.`.`.`.D.D.D.D.D.D.D.D.D.D.D.D.D.D.D.D.J.J.J.J.J.J.J.J.J.J.$X$X{.{.$X$X>X>Xa.=.# o 1 4 ",
"L.L.L.L.^.^.^.^.`.`.`.`.`.`.`.`.`.`.`.`.`.`.`.`.D.D.D.D.D.D.D.D.D.D.D.D.D.D.D.D.J.J.J.J.J.J.J.J.J.D.$X$X{.{.$X$X$Xi.*.o - - - 6 ",
"L.L.L.L.^.^.^.^.`.`.`.`.`.`.`.`.`.`.`.`.`.`.`.`.`.`.`.`.`.`.`.`.`.`.`.`.E.E.E.E.D.D.D.D.D.D.D.D.+X+X`.`.>X>XXXwXc.@.# - g k k L ",
"L.L.L.L.^.^.^.^.`.`.`.`.`.`.`.`.`.`.`.`.`.`.`.`.`.`.`.`.`.`.`.`.`.`.`.`.E.E.E.E.D.D.D.D.D.D.D.D.+X+X`.`.|.7XwXS.;.. # 4 g k L L ",
"L.L.T.L.^.^.^.^.`.`.`.`.`.`.`.`.`.`.`.`.`.`.`.`.`.`.`.`.`.`.`.`.`.`.`.`.E.E.E.E.D.`.D.D.D.D.D.D.+X+X`.`.>X6X7X:.. o g 9 p p F F ",
"L.L.T.T.^.|.|.|.`.`.`.`.`.`.`.`.`.`.`.`.`.`.`.`.`.`.`.`.`.`.`.`.`.`.`.`.E.E.E.E.`.D.D.D.D.D.D.D.+X+X`.`.>X>X>.o 1 M 9 6 p p F F ",
"L.L.L.L.^.^.^.^.`.`.`.`.`.`.`.`.`.`.`.`.`.`.`.`.`.`.`.`.`.`.`.`.E.E.E.E.E.E.E.E.D.D.D.D.D.D.D.D.+XE.4X4XeX<.. > g g 6 p r r F F ",
"L.L.L.L.^.^.^.^.`.`.`.`.`.`.`.`.`.`.`.`.`.`.`.`.`.`.`.`.`.`.D.D.E.E.E.E.E.E.E.E.D.D.D.D.D.D.D.`.=X=X9X4Xw.1 + = n r n n r U U U ",
"L.L.L.L.^.^.^.^.`.`.`.`.`.`.`.`.`.`.`.`.`.`.`.`.`.`.`.`.D.`.D.D.E.E.E.E.E.E.E.E.D.D.D.D.D.D.D.`.E.oX3Xu...# & 9 r F F F F F U U ",
"L.L.L.L.^.^.^.^.`.`.`.`.`.`.`.`.`.`.`.`.`.`.`.`.`.`.`.`.`.D.D.D.E.E.E.E.E.E.E.E.D.D.D.D.D.D.D.`.b.E.`.-.o 1 1 9 L L F F F F r r ",
"L.L.T.L.^.^.^.^.`.`.`.`.`.`.`.`.`.`.`.`.`.`.`.`.D.D.`.`.`.`.`.`.E.Z.Z.Z.E.E.E.E.E.E.E.E.E.E.E.E.E.L.t.O.= p p p H F U U U U U H ",
"L.L.L.L.^.^.^.^.`.`.`.`.`.`.`.`.`.`.`.`.`.`.`.`.D.D.`.`.`.`.`.`.E.Z.Z.Z.E.E.E.E.E.E.E.E.E.E.E.E.E.=Xe.m 6 p H H F F U U U U U U ",
"L.L.L.L.^.^.^.^.`.`.`.`.`.`.`.`.`.`.`.`.`.`.`.`.`.`.`.`.`.`.D.D.E.E.Z.Z.E.E.E.E.E.E.E.E.E.E.E.E.E.=X3.n p p H H F F U U U U U U ",
"L.L.L.L.^.^.^.^.`.`.`.`.`.`.`.`.`.`.`.`.`.`.`.`.`.`.`.`.`.`.`.D.E.E.E.E.E.E.E.E.E.E.E.E.E.E.E.E.b.L.,.n p p H H F F U U U U U U ",
"L.L.L.L.^.^.^.^.`.`.`.`.`.`.`.`.`.`.`.`.`.`.`.`.`.`.`.`.`.`.D.D.E.E.E.E.E.E.E.E.E.E.E.E.E.E.E.E.E.^.3.n n H H H J J U U U U U U ",
"L.L.L.L.^.^.^.|.`.`.`.`.`.`.`.`.`.`.`.`.`.`.`.`.D.`.`.D.`.`.D.D.E.E.E.E.E.E.E.E.E.E.E.E.E.E.E.E.E.E.3.n n H H H J J U U U U U U ",
"L.L.T.L.^.^.^.|.`.`.`.`.`.`.`.`.`.`.D.D.D.D.`.`.D.D.D.D.`.`.`.`.E.E.E.E.E.E.E.E.E.E.E.E.E.E.E.E.^.^.6.m n H H H J J U U U U U U ",
"L.L.T.T.^.^.^.|.`.`.`.`.`.`.`.`.`.`.D.D.D.D.`.`.D.D.D.D.`.`.`.`.E.E.E.E.E.E.E.E.E.E.E.E.E.E.E.E.E.^.6.m n p H H J J U U U U U H ",
"n.L.L.L.`.`.`.`.`.`.`.`.`.`.`.`.`.`.`.`.`.`.`.`.E.E.E.E.E.E.E.E.Z.Z.Z.Z.Z.Z.Z.Z.E.E.E.E.E.E.E.E.`.|.5.m n n Q H W W W U U U U Q ",
"n.L.L.L.`.`.`.`.`.`.`.`.`.`.`.`.`.`.`.`.`.`.`.D.E.E.E.E.E.E.E.E.Z.Z.Z.Z.Z.Z.Z.Z.E.E.E.E.E.E.E.E.`.`.5.C n n Q H W W W U U U U Q ",
"n.L.L.L.`.`.`.`.`.`.`.`.`.`.`.`.`.`.D.D.D.D.D.D.E.E.E.E.E.E.E.E.Z.Z.Z.Z.Z.Z.Z.Z.E.E.E.E.E.E.E.E.|.|.5.C n n Q H W W U U U U ( Q ",
"n.L.L.L.`.`.`.`.`.`.`.`.`.`.`.`.`.D.D.D.D.D.D.D.E.E.E.E.E.E.E.E.Z.Z.Z.Z.Z.Z.Z.Z.E.E.E.E.E.E.E.E.=X=X5.C n n Q H W W U U U U ( Q ",
"n.L.L.L.L.L.L.L.`.`.`.`.`.`.`.`.`.`.`.`.`.`.`.`.E.E.E.E.Z.Z.Z.Z.Z.Z.Z.Z.Z.Z.Z.Z.E.E.E.E.E.E.E.E.`.|.5.C n n H H W W | | ~ ~ Q Q ",
"n.L.L.L.L.L.L.L.`.`.`.`.`.`.`.`.`.`.`.`.`.`.`.`.E.E.E.E.Z.Z.Z.Z.Z.Z.Z.Z.Z.Z.Z.Z.E.E.E.E.E.E.E.E.|.|.5.C n n H H W W | | ~ ~ Q Q ",
"n.L.L.L.L.L.L.L.`.`.`.`.`.`.`.`.`.`.`.`.`.`.`.`.E.E.E.E.Z.Z.Z.Z.Z.Z.Z.Z.Z.Z.Z.Z.E.E.E.E.E.E.E.E.`.`.5.C n n H H W W | | | | | | ",
"n.L.L.L.L.L.L.L.`.`.`.`.`.`.`.`.`.`.`.`.D.`.`.`.E.E.E.E.Z.Z.Z.Z.Z.Z.Z.Z.Z.Z.Z.Z.E.E.E.E.E.E.E.E.`.|.5.C n n H H W W | | | | | | ",
"n.n.L.L.L.L.L.L.`.`.`.`.`.`.`.`.`.`.`.`.E.E.E.E.E.E.E.E.E.E.E.E.E.E.E.E.E.E.E.E.E.E.E.E.E.E.E.E.|.|.8.` n n Q H W W W W | | | ( ",
"n.n.L.L.L.L.L.L.`.`.`.`.`.`.`.`.`.`.`.`.E.E.E.E.E.E.E.E.E.E.E.E.E.E.E.E.E.E.E.E.E.E.E.E.E.E.E.E.|.|.8.` n U H H W W W W | | | ( ",
"n.n.L.L.L.L.L.L.`.`.`.`.`.`.`.`.`.`.`.`.E.E.E.E.E.E.E.E.E.E.E.E.E.E.E.E.E.E.E.E.E.E.E.E.E.E.E.E.|.|.8.` n U H H W W | | | | | ( ",
"n.n.L.L.L.L.L.L.`.`.`.`.`.`.`.`.`.`.`.`.E.E.E.E.E.E.E.E.E.E.E.E.E.E.E.E.E.E.E.E.E.E.E.E.E.E.E.E.|.|.8.` n U H H W W | | | | | ( ",
"n.n.L.L.L.L.L.L.`.`.`.`.`.`.`.`.E.E.E.E.E.E.E.E.E.E.E.E.Z.Z.Z.Z.E.E.E.E.E.E.E.E.E.E.E.E.E.E.E.E.|.|.8.O.( ( ~ ~ W W | | | | | ( ",
"n.n.L.L.L.L.L.L.`.`.`.`.`.`.`.`.E.E.E.E.E.E.E.E.E.E.E.E.Z.Z.Z.Z.E.E.E.E.E.E.E.E.E.E.E.E.E.E.E.E.|.|.8.O.( ( ~ ~ W W | | | | | ( ",
"n.n.L.L.L.L.L.L.`.`.`.`.`.`.`.`.E.E.E.E.E.E.E.E.E.E.E.E.Z.Z.Z.Z.E.E.E.E.E.E.E.E.E.E.E.E.E.E.E.E.|.|.9.O.( ( ~ ~ W W | | | | | ( ",
"n.n.L.L.L.L.L.L.`.`.`.`.`.`.`.`.E.E.E.E.E.E.E.E.E.E.E.E.Z.Z.Z.Z.E.E.E.E.E.E.E.E.E.E.E.E.E.E.E.E.`.|.9.X.( ( Q ~ W W W | | | | ( ",
"n.n.L.L.L.L.L.L.`.`.`.`.`.`.`.`.`.`.`.`.`.`.`.`.Z.Z.Z.Z.Z.Z.Z.Z.Z.Z.Z.Z.Z.Z.Z.Z.Z.Z.Z.Z.Z.Z.Z.Z.`.|.q.X.N ( Q ~ $.$.$.$.$.$.| | ",
"n.n.L.L.L.L.L.L.`.`.`.`.`.`.`.`.`.`.`.`.`.`.`.`.Z.Z.Z.Z.Z.Z.Z.Z.Z.Z.Z.Z.Z.Z.Z.Z.Z.Z.Z.Z.Z.Z.Z.Z.`.|.q.C N ( Q ~ $.$.$.$.$.$.| | ",
"g.n.L.L.L.L.L.L.`.`.`.`.`.`.`.`.`.`.`.`.`.`.`.`.E.E.Z.Z.Z.Z.Z.Z.Z.Z.Z.Z.Z.Z.Z.Z.Z.Z.Z.Z.Z.Z.Z.Z.`.|.q.C N ( Q ~ $.$.$.$.$.$.| | ",
"g.n.L.L.L.L.L.L.D.`.`.`.`.`.`.`.D.`.`.`.`.`.`.`.E.E.E.E.Z.Z.Z.Z.Z.Z.Z.Z.Z.Z.Z.Z.Z.Z.Z.Z.Z.Z.Z.Z.E.|.q.C N ( Q ~ $.$.$.$.$.$.| | ",
"g.n.L.L.L.L.L.L.D.D.`.`.`.`.D.`.D.D.`.`.n.n.B.B.Z.Z.Z.Z.Z.Z.Z.Z.Z.Z.Z.Z.Z.Z.Z.Z.Z.Z.Z.Z.Z.Z.Z.Z.E.=X0.C N ( Q ~ ~ #.~ ~ $.$.| | ",
"g.n.L.L.L.L.L.L.D.D.`.`.`.`.D.D.D.D.`.`.n.n.B.n.Z.Z.Z.Z.Z.Z.Z.Z.Z.Z.Z.Z.Z.Z.Z.Z.Z.Z.Z.Z.Z.Z.Z.Z.E.=X0.C N ( Q ~ ~ #.~ #.$.$.| | ",
"g.n.L.L.L.L.L.L.D.D.`.`.`.D.D.D.D.D.`.`.n.n.n.n.Z.Z.Z.Z.Z.Z.Z.Z.Z.Z.Z.Z.Z.Z.Z.Z.Z.Z.Z.Z.Z.Z.Z.Z.E.=X0.C N ( Q ~ ~ #.~ ~ $.$.| | ",
"g.n.L.L.L.L.L.L.D.D.`.`.`.`.D.D.D.D.`.`.n.n.n.n.Z.Z.Z.Z.Z.Z.Z.Z.Z.Z.Z.Z.Z.Z.Z.Z.Z.Z.Z.Z.Z.Z.Z.Z.E.=X0.C N ( Q ~ ~ #.~ ~ $.$.| | "
};
