/* XPM */
static char *_6da0eb3c242438cb62db7c1e75336aegoZ3bUO5ryOHSIMU[] = {
/* columns rows colors chars-per-pixel */
"40 40 192 2 ",
"   c black",
".  c #010101",
"X  c #020202",
"o  c gray1",
"O  c gray2",
"+  c gray3",
"@  c #090909",
"#  c gray4",
"$  c gray6",
"%  c #111111",
"&  c gray7",
"*  c #131313",
"=  c gray8",
"-  c #151515",
";  c #161616",
":  c gray9",
">  c #181818",
",  c #191919",
"<  c gray10",
"1  c #1B1B1B",
"2  c #1D1D1D",
"3  c #1E1E1E",
"4  c gray12",
"5  c #202020",
"6  c gray13",
"7  c #222222",
"8  c #232323",
"9  c gray14",
"0  c #252525",
"q  c gray15",
"w  c #272727",
"e  c #282828",
"r  c gray16",
"t  c #2A2A2A",
"y  c #2C2C2C",
"u  c #2D2D2D",
"i  c gray18",
"p  c #2F2F2F",
"a  c gray19",
"s  c #313131",
"d  c #323232",
"f  c gray20",
"g  c #343434",
"h  c #353535",
"j  c gray21",
"k  c #373737",
"l  c gray22",
"z  c #393939",
"x  c #3A3A3A",
"c  c gray23",
"v  c #3C3C3C",
"b  c gray24",
"n  c #3E3E3E",
"m  c #3F3F3F",
"M  c gray25",
"N  c #414141",
"B  c gray26",
"V  c #434343",
"C  c #444444",
"Z  c gray27",
"A  c #464646",
"S  c gray28",
"D  c #484848",
"F  c #494949",
"G  c gray29",
"H  c #4B4B4B",
"J  c #4C4C4C",
"K  c gray30",
"L  c #4E4E4E",
"P  c gray31",
"I  c gray32",
"U  c #535353",
"Y  c gray33",
"T  c #555555",
"R  c #565656",
"E  c gray34",
"W  c #585858",
"Q  c gray35",
"!  c #5A5A5A",
"~  c #5B5B5B",
"^  c gray36",
"/  c #5D5D5D",
"(  c gray37",
")  c #5F5F5F",
"_  c #606060",
"`  c gray38",
"'  c #626262",
"]  c gray39",
"[  c #646464",
"{  c #656565",
"}  c gray40",
"|  c #686868",
" . c #6A6A6A",
".. c #6C6C6C",
"X. c #6D6D6D",
"o. c gray43",
"O. c #6F6F6F",
"+. c gray44",
"@. c #717171",
"#. c #727272",
"$. c gray45",
"%. c #747474",
"&. c gray46",
"*. c #767676",
"=. c #777777",
"-. c gray47",
";. c #797979",
":. c gray48",
">. c #7B7B7B",
",. c #7C7C7C",
"<. c gray49",
"1. c #7E7E7E",
"2. c gray50",
"3. c #808080",
"4. c #818181",
"5. c gray51",
"6. c #838383",
"7. c #848484",
"8. c gray52",
"9. c #868686",
"0. c gray53",
"q. c #888888",
"w. c #898989",
"e. c gray54",
"r. c #8B8B8B",
"t. c gray55",
"y. c #8D8D8D",
"u. c #8E8E8E",
"i. c gray56",
"p. c #909090",
"a. c gray57",
"s. c gray58",
"d. c #959595",
"f. c #979797",
"g. c #989898",
"h. c #9B9B9B",
"j. c gray62",
"k. c #A0A0A0",
"l. c gray63",
"z. c gray64",
"x. c #A5A5A5",
"c. c #A7A7A7",
"v. c gray66",
"b. c #A9A9A9",
"n. c #AAAAAA",
"m. c gray68",
"M. c #AFAFAF",
"N. c #B1B1B1",
"B. c #B2B2B2",
"V. c gray71",
"C. c #B9B9B9",
"Z. c gray76",
"A. c #C6C6C6",
"S. c gray78",
"D. c #C8C8C8",
"F. c gray79",
"G. c #CACACA",
"H. c #CBCBCB",
"J. c gray80",
"K. c #CDCDCD",
"L. c #CECECE",
"P. c gray81",
"I. c #D0D0D0",
"U. c gray82",
"Y. c #D2D2D2",
"T. c gray83",
"R. c #D8D8D8",
"E. c gray85",
"W. c gray86",
"Q. c #DFDFDF",
"!. c #E1E1E1",
"~. c gray89",
"^. c gray90",
"/. c #E6E6E6",
"(. c #E7E7E7",
"). c gray91",
"_. c #E9E9E9",
"`. c #EAEAEA",
"'. c gray92",
"]. c #ECECEC",
"[. c gray93",
"{. c #EFEFEF",
"}. c gray94",
"|. c #F3F3F3",
" X c gray96",
".X c gray97",
"XX c #F8F8F8",
"oX c #FBFBFB",
"OX c gray99",
"+X c #FDFDFD",
"@X c #FEFEFE",
"#X c white",
/* pixels */
"| . . . . . . . 4  XC.. . . . . . . . . . . . . . . . . . x. Xq . . . . . . . Q ",
". h.D.D.D.D.S.D.O i.N J D.D.D.D.D.D.D.D.D.D.D.D.D.D.S.D.^ y k.. D.D.D.D.K.S.k.. ",
". Q.#X#X#X#X#X#X7 2.N >.#X#X#X#X#X#X#X#X#X#X#X#X#X#X#X#Xq.j i.< #X#X#X#X#X#X'.. ",
"y U.#X#X#X#X#X#X4 q.A | #X#X#X#X#X#X#X#X#X#X#X#X#X#X#X#X>.c h.- #X#X#X#X#X#XU.. ",
"#X#X#X#X#X#X#X#X4 q.A O.#X#X#X#X#X#X#X#X#X#X#X#X#X#X#X#X>.v f.- #X#X#X#X#X#XK.. ",
"N.'.#X#X#X#X#X#X4 q.H | #X#X#X#X#X#X#X#X#X#X#X#X#X#X#X#X>.c h.- #X#X#X#X#X#XK.. ",
". S.#X#X#X#X#X#X4 9.A O.#X#X#X#X#X#X#X#X#X#X#X#X#X#X#X#X2.c f.- #X#X#X#X#X#XU.. ",
". !.#X#X#X#X#X#X4 >.j &.#X#X#X#X#X#X#X#X#X#X#X#X#X#X#X#Xq.y q.- #X#X#X#X#X#X'.. ",
"+ 4 y a y a a y . S.&.. y a y a a a a q t y a a a y a a . ^ U.. y a a y a y 4 . ",
" XO.{ { { ] ] { v.#X#X4.{ { { ] { ^ O.] ^ #.] ] ] { ] { 4.#X#XM.{ ] { { { { O.'.",
"M.H N N N N N N v & 4 N N N v N N N O.#X#X#.N N N N v N N 7 & c N N N N N N H x.",
". Q 4.2.4.2.2.>.>.2.>.2.2.2.2.2.2.4.. 2.f.. 2.2.2.>.2.4.2.2.>.2.>.2.2.4.2.4.^ . ",
". '.#X#X#X#X#X#X#XoX#X#X#X#X#X#X#X#XH ] &.y #X#X#X#X#X#X#X#X#X#X#X#X#X#X#X#X[.. ",
". D.#X#X#X#X#X#X#X#X#X#X#X#X#X#X#X#Xv #.4.t #X#X#X#X#X#X#X#X#X#X#X#X#X#X#X#XK.. ",
". D.#X#X#X#X#X#X#X#X#X#X#X#X#X#X#X#Xv #.4.t #X#X#X#X#X#X#X#X#X#X#X#X#X#X#X#XK.. ",
". D.#X#X#X#X#X#X#X#X#X#X#X#X#X#X#X#Xc #.4.q #X#X#X#X#X#X#X#X#X#X#X#X#X#X#X#XK.. ",
". D.#X#X#X#X#X#X#X#X#X#X#X#X#X#X#X#Xv O.4.t #X#X#X#X#X#X#X#X#X#X#X#X#X#X#X#XK.. ",
". [.#X#X#X#X#X#X#X#X#X#X#X#X#X#X#X#XA ] #.y #X#X#X#X#X#X#X#X#X#X#X#X#X#X#X#X}.. ",
". N ^ ^ ^ ^ Q ^ ^ Q R ^ Q ^ ^ ^ ^ ] . i.k.. ^ ^ ^ ^ ^ ^ ^ Q ^ Q ^ ^ ^ ^ ^ ^ N . ",
"K.R H A H H H H H q j H H A H H H A 2.#X#X9.A H 7 t H H H j 7 J H A H H A H R Z.",
"Q.] R R R R R I j.#X#X>.R R R R R R Q A c ^ R { #X#XQ I &.#X#Xk.R R R R R R ^ T.",
". a H J H H H J . V.] O J J J A H H A N H H H Q #X'.J H + H Z.. H J H H J H j . ",
". '.#X#X#X#X#X#X7 >.c 2.#X#X#X#X#X#X#X#X#X#X#X#X#X#X#X#Xa.y q.- #X#X#X#X#X#X}.. ",
". D.#X#X#X#X#X#X4 9.A O.#X#X#X#X#X#X#X#X#X#X#X#X#X#X#X#X>.v h.- #X#X#X#X#X#XK.. ",
". D.#X#X#X#X#X#X4 9.A O.#X#X#X#X#X#X#X#X#X#X#X#X#X#X#X#X>.c h.- #X#X#X#X#X#XK.. ",
". D.#X#X#X#X#X#X4 q.H | #X#X#X#X#X#X#X#X#X#X#X#X#X#X#X#X2.c f.- #X#X#X#X#X#XK.. ",
". D.#X#X#X#X#X#X4 9.A | #X#X#X#X#X#X#X#X#X#X#X#X#X#X#X#X&.v h.- #X#X#X#X#X#XK.. ",
". /.#X#X#X#X#X#Xq 2.c 2.#X#X#X#X#X#X#X#X#X#X#X#X#X#X#X#Xa.a i.< #X#X#X#X#X#X[.. ",
". ] q.q.q.q.q.q.. h.A q q.9.q.9.q.q.9.q.q.9.q.q.q.q.i.q.y j v.. q.q.q.q.q.q.{ . ",
"h.N j j j c j j O.#XoXJ j c j c j j a & + j j j c j c j J /.#X#.j j c j c j N a.",
"#X2.#.#.&.#.#.&.4.#.2.>.#.#.#.#.#.#.x.#X#Xv.#.#.#.#.#.#.>.4.#.9.#.#.#.&.#.#.>. X",
"& - q q q q q q 7 - < 7 q q q q t q . N.S.. q t q q q q 7 < < 4 7 q q q q q < + ",
". W.#X#X#X#X#X#X#X#X#X#X#X#X#X#X#X#Xv ] #.q #X#X#X#X#X#X#X#X#X#X#X#X#X#X#X#X!.. ",
". K.#X#X#X#X#X#X#X#X#X#X#X#X#X#X#X#Xv O.4.t #X#X#X#X#X#X#X#X#X#X#X#X#X#X#X#XU.. ",
". D.#X#X#X#X#X#X#X#X#X#X#X#X#X#X#X#Xv #.4.q #X#X#X#X#X#X#X#X#X#X#X#X#X#X#X#XK.. ",
". D.#X#X#X#X#X#X#X#X#X#X#X#X#X#X#X#Xv #.4.t #X#X#X#X#X#X#X#X#X#X#X#X#X#X#X#XK.. ",
". D.#X#X#X#X#X#X#X#X#X#X#X#X#X#X#X#Xv O.4.t #X#X#X#X#X#X#X#X#X#X#X#X#X#X#X#XK.. ",
". /.#X#X#X#X#X#X#X#X#X#X#X#X#X#X#X#XA { >.y #X#X#X#X#X#X#X#X#X#X#X#X#X#X#X#X/.. ",
". k.K.W.#X[.U.D.K.K.K.K.K.K.K.K.K.K.q #.4.& K.K.K.K.K.K.K.D.D.D.K.K.K.D.U.D.x.. ",
"Q . . a #Xk.. . . . . . . . . . . . + W./.$ . . . . . . . . . . . . . . . . . J "
};
